<svg width="28" height="28" viewBox="0 0 28 28" fill="none" xmlns="http://www.w3.org/2000/svg">
<g filter="url(#filter0_d_378_59)">
<circle cx="14" cy="14" r="10" fill="white"/>
</g>
<path d="M11.4264 10.5133L13.9998 13.0866L16.5598 10.5266C16.6163 10.4665 16.6845 10.4183 16.7601 10.3851C16.8357 10.3519 16.9172 10.3343 16.9998 10.3333C17.1766 10.3333 17.3462 10.4036 17.4712 10.5286C17.5962 10.6536 17.6665 10.8232 17.6665 11C17.668 11.0817 17.6528 11.1629 17.6219 11.2386C17.5909 11.3142 17.5448 11.3828 17.4864 11.44L14.8931 14L17.4864 16.5933C17.5963 16.7008 17.6608 16.8464 17.6665 17C17.6665 17.1768 17.5962 17.3464 17.4712 17.4714C17.3462 17.5964 17.1766 17.6666 16.9998 17.6666C16.9148 17.6702 16.8301 17.656 16.7509 17.625C16.6717 17.594 16.5998 17.5469 16.5398 17.4866L13.9998 14.9133L11.4331 17.48C11.3768 17.5382 11.3095 17.5846 11.2351 17.6166C11.1607 17.6487 11.0808 17.6657 10.9998 17.6666C10.823 17.6666 10.6534 17.5964 10.5284 17.4714C10.4034 17.3464 10.3331 17.1768 10.3331 17C10.3316 16.9182 10.3467 16.8371 10.3777 16.7614C10.4086 16.6857 10.4547 16.6172 10.5131 16.56L13.1064 14L10.5131 11.4066C10.4032 11.2992 10.3388 11.1536 10.3331 11C10.3331 10.8232 10.4034 10.6536 10.5284 10.5286C10.6534 10.4036 10.823 10.3333 10.9998 10.3333C11.1598 10.3353 11.3131 10.4 11.4264 10.5133Z" fill="#C4C4C4"/>
<defs>
<filter id="filter0_d_378_59" x="0" y="0" width="28" height="28" filterUnits="userSpaceOnUse" color-interpolation-filters="sRGB">
<feFlood flood-opacity="0" result="BackgroundImageFix"/>
<feColorMatrix in="SourceAlpha" type="matrix" values="0 0 0 0 0 0 0 0 0 0 0 0 0 0 0 0 0 0 127 0" result="hardAlpha"/>
<feOffset/>
<feGaussianBlur stdDeviation="2"/>
<feComposite in2="hardAlpha" operator="out"/>
<feColorMatrix type="matrix" values="0 0 0 0 0 0 0 0 0 0 0 0 0 0 0 0 0 0 0.1 0"/>
<feBlend mode="normal" in2="BackgroundImageFix" result="effect1_dropShadow_378_59"/>
<feBlend mode="normal" in="SourceGraphic" in2="effect1_dropShadow_378_59" result="shape"/>
</filter>
</defs>
</svg>
