<svg width="24" height="27" viewBox="0 0 24 27" fill="none" xmlns="http://www.w3.org/2000/svg">
<path fill-rule="evenodd" clip-rule="evenodd" d="M12.03 0.25C12.213 0.25 12.3525 0.412 12.3285 0.5935C11.9145 3.69632 11.9666 6.84358 12.483 9.931L12.504 10.0615C12.5165 10.1359 12.5512 10.2049 12.6036 10.2593C12.6559 10.3137 12.7234 10.351 12.7973 10.3664C12.8712 10.3818 12.948 10.3745 13.0178 10.3456C13.0875 10.3166 13.1468 10.2672 13.188 10.204L15.624 6.4525C15.6376 6.43145 15.6563 6.41414 15.6783 6.40215C15.7003 6.39017 15.7249 6.38389 15.75 6.38389C15.7751 6.38389 15.7997 6.39017 15.8217 6.40215C15.8437 6.41414 15.8624 6.43145 15.876 6.4525L18.312 10.204C18.3532 10.2672 18.4125 10.3166 18.4822 10.3456C18.552 10.3745 18.6288 10.3818 18.7027 10.3664C18.7766 10.351 18.8441 10.3137 18.8964 10.2593C18.9488 10.2049 18.9835 10.1359 18.996 10.0615L19.017 9.931C19.5345 6.841 19.5855 3.694 19.1715 0.5935C19.1657 0.5507 19.1692 0.50716 19.1816 0.465799C19.194 0.424439 19.2152 0.386213 19.2436 0.353685C19.272 0.321156 19.307 0.295077 19.3463 0.277194C19.3856 0.259312 19.4283 0.25004 19.4715 0.25H21.75C22.3467 0.25 22.919 0.487053 23.341 0.90901C23.7629 1.33097 24 1.90326 24 2.5V25C24 25.3978 23.842 25.7794 23.5607 26.0607C23.2794 26.342 22.8978 26.5 22.5 26.5H5.25C3.98732 26.5003 2.76683 26.0456 1.81223 25.2191C0.857631 24.3926 0.232882 23.2497 0.0524998 22H0V7C0 5.20979 0.711159 3.4929 1.97703 2.22703C3.2429 0.961159 4.95979 0.25 6.75 0.25H12.03ZM5.25 18.25H21.75V24.25H5.25C4.45435 24.25 3.69129 23.9339 3.12868 23.3713C2.56607 22.8087 2.25 22.0456 2.25 21.25C2.25 20.4544 2.56607 19.6913 3.12868 19.1287C3.69129 18.5661 4.45435 18.25 5.25 18.25Z" fill="#6692FB"/>
<path d="M4.56686 18H22L22 25H4.56686C-0.0819736 21.2667 2.62985 18.7778 4.56686 18Z" fill="#A4E5F9"/>
<path d="M16.0342 6.93699C15.5747 8.14463 13.8443 9.86601 13.0002 10.5C11.8907 11.3333 12 3 12 0H15.5002H19.5C19.5001 2.5 20.0002 6.5 19.0002 10.5C18.0504 10.5 16.7191 8.38293 16.0342 6.93699Z" fill="#DC425A"/>
</svg>
