<svg width="20" height="20" viewBox="0 0 20 20" fill="none" xmlns="http://www.w3.org/2000/svg">
<g clip-path="url(#clip0_187_203)">
<path d="M3.57126 19.2858H16.4284M3.57126 12.143H16.4284M19.1855 4.85724C19.0403 4.25813 18.7418 3.70706 18.3193 3.25807C17.8969 2.80907 17.365 2.47757 16.7759 2.29607C16.1867 2.11457 15.5605 2.0893 14.9586 2.22274C14.3568 2.35618 13.7999 2.64375 13.3427 3.05724C13.0931 2.37111 12.6384 1.7784 12.0404 1.35956C11.4424 0.940731 10.7299 0.716064 9.99983 0.716064C9.26972 0.716064 8.55729 0.940731 7.95925 1.35956C7.36122 1.7784 6.90655 2.37111 6.65697 3.05724C6.19973 2.64375 5.64288 2.35618 5.04102 2.22274C4.43915 2.0893 3.81294 2.11457 3.22379 2.29607C2.63463 2.47757 2.10276 2.80907 1.68033 3.25807C1.25789 3.70706 0.9594 4.25813 0.814114 4.85724C0.700605 5.32478 0.682345 5.81037 0.760421 6.28511C0.838498 6.75985 1.01131 7.21402 1.26858 7.62058C1.52584 8.02713 1.86229 8.37776 2.25789 8.65157C2.65349 8.92539 3.10014 9.11679 3.57126 9.21438V14.2858C3.57126 14.6647 3.72177 15.0281 3.98968 15.296C4.25758 15.5639 4.62095 15.7144 4.99983 15.7144H14.9998C15.3787 15.7144 15.7421 15.5639 16.01 15.296C16.2779 15.0281 16.4284 14.6647 16.4284 14.2858V9.21438C16.8995 9.11679 17.3462 8.92539 17.7418 8.65157C18.1374 8.37776 18.4738 8.02713 18.7311 7.62058C18.9883 7.21402 19.1612 6.75985 19.2392 6.28511C19.3173 5.81037 19.2991 5.32478 19.1855 4.85724Z" stroke="#D2D2D2" stroke-width="2" stroke-linecap="round" stroke-linejoin="round"/>
</g>
<defs>
<clipPath id="clip0_187_203">
<rect width="20" height="20" fill="white"/>
</clipPath>
</defs>
</svg>
