<svg width="32" height="28" viewBox="0 0 32 28" fill="none" xmlns="http://www.w3.org/2000/svg">
<path d="M31.75 9.21875C31.75 19.0625 17.1545 27.0303 16.533 27.3594C16.3691 27.4475 16.186 27.4936 16 27.4936C15.814 27.4936 15.6309 27.4475 15.467 27.3594C14.8455 27.0303 0.25 19.0625 0.25 9.21875C0.252605 6.90719 1.17202 4.69106 2.80654 3.05654C4.44106 1.42202 6.65719 0.502605 8.96875 0.5C11.8727 0.5 14.4152 1.74875 16 3.85953C17.5848 1.74875 20.1273 0.5 23.0312 0.5C25.3428 0.502605 27.5589 1.42202 29.1935 3.05654C30.828 4.69106 31.7474 6.90719 31.75 9.21875Z" fill="#DD727B"/>
</svg>
